<?xml version="1.0" encoding="UTF-8" standalone="no"?>
<svg width="32px" height="46px" viewBox="0 0 32 46" version="1.1" xmlns="http://www.w3.org/2000/svg" xmlns:xlink="http://www.w3.org/1999/xlink" xmlns:sketch="http://www.bohemiancoding.com/sketch/ns">
    <!-- Generator: Sketch 3.3.3 (12072) - http://www.bohemiancoding.com/sketch -->
    <title>Rectangle 46 + Rectangle 46 Copy + Rectangle 46 Copy 2</title>
    <desc>Created with Sketch.</desc>
    <defs></defs>
    <g id="Page-1" stroke="none" stroke-width="1" fill="none" fill-rule="evenodd" sketch:type="MSPage">
        <g id="Анкета" sketch:type="MSArtboardGroup" transform="translate(-27.000000, -1157.000000)" fill="#FFFFFF">
            <g id="Rectangle-46-+-Rectangle-46-Copy-+-Rectangle-46-Copy-2" sketch:type="MSLayerGroup" transform="translate(27.000000, 1157.000000)">
                <path d="M17.2667467,0.53166893 C16.851371,0.199347352 16.3245979,0 15.7514527,0 C15.1741745,0 14.6467072,0.198305296 14.2319317,0.529953058 L14.2319317,0.529953058 C13.7820012,0.623734514 13.3530647,0.846217143 13.0029606,1.19632124 L1.04064808,13.1586338 C0.0821216178,14.1171603 0.0869052495,15.650063 1.03532139,16.5984791 C1.99034971,17.5535075 3.52380874,17.5445104 4.47516674,16.5931524 L13.3228812,7.74543794 L13.3228812,43.5754862 C13.3228812,44.9082859 14.4101897,46 15.7514527,46 C17.1020667,46 18.1800241,44.9145082 18.1800241,43.5754862 L18.1800241,7.75782692 L27.0153496,16.5931524 C27.9667076,17.5445104 29.5001667,17.5535075 30.455195,16.5984791 C31.4036111,15.650063 31.4083947,14.1171603 30.4498683,13.1586338 L18.4875557,1.19632124 C18.1395693,0.848334792 17.7137012,0.626430611 17.2667467,0.53166893 Z" id="Rectangle-46" sketch:type="MSShapeGroup"></path>
            </g>
        </g>
    </g>
</svg>