<?xml version="1.0" encoding="UTF-8" standalone="no"?>
<svg width="14px" height="14px" viewBox="0 0 14 14" version="1.1" xmlns="http://www.w3.org/2000/svg" xmlns:xlink="http://www.w3.org/1999/xlink" xmlns:sketch="http://www.bohemiancoding.com/sketch/ns">
    <!-- Generator: Sketch 3.3.3 (12072) - http://www.bohemiancoding.com/sketch -->
    <title>Oval 1 Copy</title>
    <desc>Created with Sketch.</desc>
    <defs></defs>
    <g id="Page-1" stroke="none" stroke-width="1" fill="none" fill-rule="evenodd" sketch:type="MSPage">
        <g id="Анкета" sketch:type="MSArtboardGroup" transform="translate(-216.000000, -970.000000)" fill="#FFFFFF" opacity="0.5">
            <path d="M223,984 C226.865993,984 230,980.865993 230,977 C230,973.134007 226.865993,970 223,970 C219.134007,970 216,973.134007 216,977 C216,980.865993 219.134007,984 223,984 Z M222.987091,975 C223.532589,975 223.974182,974.549669 223.974182,973.993377 C223.974182,973.437086 223.532589,973 222.987091,973 C222.454581,973 222,973.437086 222,973.993377 C222,974.549669 222.454581,975 222.987091,975 Z M223.974182,981 L223.974182,976 L221.111,976 L222.018188,977.070068 L222.018188,981 L223.974182,981 Z" id="Oval-1-Copy" sketch:type="MSShapeGroup"></path>
        </g>
    </g>
</svg>