<?xml version="1.0" encoding="UTF-8" standalone="no"?>
<svg width="281px" height="316px" viewBox="0 0 281 316" version="1.1" xmlns="http://www.w3.org/2000/svg" xmlns:xlink="http://www.w3.org/1999/xlink" xmlns:sketch="http://www.bohemiancoding.com/sketch/ns">
    <!-- Generator: Sketch 3.3.3 (12072) - http://www.bohemiancoding.com/sketch -->
    <title>Group Copy 2</title>
    <desc>Created with Sketch.</desc>
    <defs></defs>
    <g id="Page-1" stroke="none" stroke-width="1" fill="none" fill-rule="evenodd" sketch:type="MSPage">
        <g id="Анкета" sketch:type="MSArtboardGroup" transform="translate(-892.000000, -156.000000)" stroke="#FFFFFF" stroke-width="2">
            <g id="Group-Copy-2" sketch:type="MSLayerGroup" transform="translate(890.629032, 152.536000)">
                <path d="M67.1972141,317.612903 L264.982887,317.612903" id="Line" stroke-linecap="round" sketch:type="MSShapeGroup"></path>
                <path d="M54.901403,261.657954 C91.8180651,318.504628 167.828268,334.661095 224.674942,297.744433 C281.521617,260.827771 297.678084,184.817569 260.761422,127.970894 C260.761422,127.970894 246.842251,90.732853 192.648928,77.2131347" id="Oval-57" stroke-linecap="square" sketch:type="MSShapeGroup"></path>
                <path d="M3.24462366,259.967742 L107.371934,259.967742" id="Line" stroke-linecap="round" sketch:type="MSShapeGroup"></path>
                <g id="Rectangle-453-+-Rectangle-454" transform="translate(154.441013, 89.982406) rotate(-13.000000) translate(-154.441013, -89.982406) translate(79.441013, 14.982406)" stroke-linecap="square" sketch:type="MSShapeGroup">
                    <path d="M102.824902,14.6264035 C107.01485,10.4364552 113.827138,10.4554944 118.029096,14.657453 L135.284537,31.9128935 C139.491633,36.1199899 139.482058,42.9506164 135.315586,47.1170879 L36.2111514,146.221523 C32.0212031,150.411471 25.2089155,150.392432 21.0069569,146.190473 L3.7515164,128.935033 C-0.455580037,124.727936 -0.446004588,117.89731 3.7204669,113.730838 L102.824902,14.6264035 L102.824902,14.6264035 Z" id="Rectangle-453"></path>
                    <path d="M133.482267,3.37073929 C135.04508,1.80792662 137.576132,1.80515943 139.145879,3.37490609 L146.538395,10.767422 C148.103509,12.3325359 148.111058,14.8625383 146.542562,16.4310341 L133.126942,29.8466537 L120.066647,16.7863589 L133.482267,3.37073929 Z" id="Rectangle-454"></path>
                </g>
            </g>
        </g>
    </g>
</svg>